<svg id="Layer_1" data-name="Layer 1" xmlns="http://www.w3.org/2000/svg" width="210mm" height="210mm" viewBox="0 0 595.28 595.28">
  <title>printify_logo</title>
  <g>
    <path d="M320.3,302.45L373,339.26a39.24,39.24,0,0,1-9.92,69.37,92.78,92.78,0,0,1-41.8,3.59l-10.46-1.71a38.79,38.79,0,0,1-26.18,32.14,89.27,89.27,0,0,1-34.51,4.1l6,4a6.76,6.76,0,1,1-7.56,11.2L212.8,437.83l-0.34-.13a6.72,6.72,0,0,1-2.21-1.58L201,429.89a6.75,6.75,0,0,1,7.56-11.19l10.53,7.11c22.46,8.74,43.07,10.1,61.27,4,13.09-4.36,18.06-16.53,17.19-26.65a25.7,25.7,0,0,0-11-19.21l-62-43.45a31.6,31.6,0,0,0-43.93,7.75L106,454.84a31.6,31.6,0,0,0,7.75,43.93l94.68,66.31a166.77,166.77,0,0,0,232.27-41l0.26-.34,0.38-.56C467,486,471.58,436.61,453.18,394.29L405.43,284.44c-20.19,11.8-46.53,18-76.6,18H320.3Z" fill="#00ba64"/>
    <path d="M210.12,241.57A44.72,44.72,0,0,1,243.79,249l57.16,39.9h27.89c29.61,0,55-6.38,73.5-18.46,0.65-.42,1.3-0.87,1.94-1.32a75.79,75.79,0,0,0,12.15-10.45,27.45,27.45,0,0,0,5.13-30,28.11,28.11,0,0,0-26-17.17H219.59c-0.7,0-1.4,0-2.1.05-1.65.05-3.28,0.17-4.88,0.36a62,62,0,0,0-44,26.13L106.4,327a30.43,30.43,0,0,0,2.08,37.37l0.76-1.1,27-39.25,0.18,0.12,44.56-64A44.77,44.77,0,0,1,210.12,241.57Z" fill="#00ba64"/>
    <path d="M232.3,329.45l62,43.46a38.9,38.9,0,0,1,15.91,23.8l13.08,2.14a79.23,79.23,0,0,0,35.56-3,25.73,25.73,0,0,0,6.45-45.47L296.7,302.45h-0.48v-0.33l-60.18-42a31.58,31.58,0,0,0-43.94,7.74L120.6,370.6l-7.36,10.68h-0.07L106.4,391a30.44,30.44,0,0,0,1.84,37.06l61.31-87.54A45.13,45.13,0,0,1,232.3,329.45Z" fill="#00ba64"/>
    <path d="M211.05,198.49c0.24,0,.48,0,0.72-0.05l3.72-16c1.24-5.4,2.77-11.78,4.6-18.1,7.65-26.23,8.8-50.6,3.32-70.5a77.76,77.76,0,0,0-6.9-17,27.47,27.47,0,0,0-27-14.05A28.1,28.1,0,0,0,165.2,82.29l-5.08,15.86c-9.66,30-18.18,61-25.33,92.06s-13,62.59-17.52,93.85l-0.69,4.82,41-58.59A75.51,75.51,0,0,1,211.05,198.49Z" fill="#00ba64"/>
    <path d="M293.67,80.67A12.17,12.17,0,0,0,306.35,69l2.32-53.89c0-.41,0-0.85,0-1.26a14.52,14.52,0,0,0-29,1.27L282,69A12.22,12.22,0,0,0,293.67,80.67Z" fill="#00ba64"/>
    <path d="M369.52,104.27A12.17,12.17,0,0,0,386.59,102L419.4,59.2c0.25-.32.5-0.68,0.72-1a14.52,14.52,0,0,0-24.49-15.59l-29,45.5A12.22,12.22,0,0,0,369.52,104.27Z" fill="#00ba64"/>
    <path d="M418.12,167.11A12.17,12.17,0,0,0,433.39,175l51.44-16.25c0.39-.12.8-0.27,1.18-0.43a14.52,14.52,0,0,0-11.12-26.82L425.06,152.2A12.22,12.22,0,0,0,418.12,167.11Z" fill="#00ba64"/>
    <path d="M330.54,146.51a76.81,76.81,0,0,0-16.08-8.92,27.45,27.45,0,0,0-29.86,6A28.12,28.12,0,0,0,278,174.1L287.18,198h81.13C358.06,175.38,346.13,157.71,330.54,146.51Z" fill="#00ba64"/>
  </g>
</svg>
